# xmcd
#
# Track frame offsets:
#	150
#	17199
#	31497
#	49350
#	66713
#	83636
#	100513
#	119495
#	136435
#	158074
#	176521
#	195174
#	213640
#	229628
#	245074
#
# Disc length: 3515 seconds
#
# Revision: 1
# Processed by: cddbd v1.5.2PL0 Copyright (c) Steve Scherf et al.
# Submitted via: EasyCDDAExtractor 12.0.1.1
#
DISCID=d10db90f
DTITLE=Various Artist - Sanremo 2009 - Cd1
DYEAR=2009
DGENRE=Pop-Folk
TTITLE0=Marco Carta - La Forza Mia
TTITLE1=Francesco Renga - Uomo Senza Età
TTITLE2=Patty Pravo - E Io Verrò Un Giorno Là
TTITLE3=Al Bano - L'amore È Sempre Amore
TTITLE4=Alexia feat. Mario Lavezzi - Biancaneve
TTITLE5=Dolcenera - Il Mio Amore Unico
TTITLE6=Gemelli Diversi - Vivi Per Un Miracolo
TTITLE7=Fausto Leali - Una Piccola Parte Di Te
TTITLE8=Marco Masini - L'italia
TTITLE9=Nicky Nicolai E Stefano Di Battista - Più Sole
TTITLE10=Povia - Luca Era Gay
TTITLE11=Pupo, Paolo Belli E Youssou'n Dour - L'opportunità
TTITLE12=Sal Da Vinci - Non Riesco A Farti Innamorare
TTITLE13=Tricarico - Il Bosco Delle Fragole
TTITLE14=Iva Zanicchi - Ti Voglio Senza Amore
EXTD=
EXTT0=
EXTT1=
EXTT2=
EXTT3=
EXTT4=
EXTT5=
EXTT6=
EXTT7=
EXTT8=
EXTT9=
EXTT10=
EXTT11=
EXTT12=
EXTT13=
EXTT14=
PLAYORDER=
